<mxfile host="app.diagrams.net" modified="2023-02-21T09:30:16.518Z" agent="5.0 (Windows NT 10.0; Win64; x64) AppleWebKit/537.36 (KHTML, like Gecko) Chrome/110.0.0.0 Safari/537.36" etag="cis0n03UNiieOccJQqLr" version="20.8.20" type="github">
  <diagram name="Page-1" id="_C0yLNHUvPkkxZI_86Gz">
    <mxGraphModel dx="989" dy="530" grid="1" gridSize="10" guides="1" tooltips="1" connect="1" arrows="1" fold="1" page="1" pageScale="1" pageWidth="1169" pageHeight="827" background="#ffffff" math="0" shadow="0">
      <root>
        <mxCell id="0" />
        <mxCell id="1" parent="0" />
        <mxCell id="1P2t0-WDeM51nAtpfg30-1" value="" style="rounded=0;whiteSpace=wrap;html=1;fillColor=none;" vertex="1" parent="1">
          <mxGeometry x="60" y="60" width="1070" height="660" as="geometry" />
        </mxCell>
        <mxCell id="1P2t0-WDeM51nAtpfg30-7" value="" style="edgeStyle=orthogonalEdgeStyle;rounded=0;orthogonalLoop=1;jettySize=auto;html=1;" edge="1" parent="1" source="1P2t0-WDeM51nAtpfg30-2" target="1P2t0-WDeM51nAtpfg30-4">
          <mxGeometry relative="1" as="geometry" />
        </mxCell>
        <mxCell id="1P2t0-WDeM51nAtpfg30-28" value="" style="edgeStyle=none;rounded=0;jumpSize=0;orthogonalLoop=1;jettySize=auto;html=1;" edge="1" parent="1" source="1P2t0-WDeM51nAtpfg30-2" target="1P2t0-WDeM51nAtpfg30-27">
          <mxGeometry relative="1" as="geometry" />
        </mxCell>
        <mxCell id="1P2t0-WDeM51nAtpfg30-34" value="" style="edgeStyle=none;rounded=0;jumpSize=0;orthogonalLoop=1;jettySize=auto;html=1;" edge="1" parent="1" source="1P2t0-WDeM51nAtpfg30-2" target="1P2t0-WDeM51nAtpfg30-3">
          <mxGeometry relative="1" as="geometry" />
        </mxCell>
        <mxCell id="1P2t0-WDeM51nAtpfg30-2" value="" style="rounded=0;whiteSpace=wrap;html=1;fillColor=none;" vertex="1" parent="1">
          <mxGeometry x="490" y="260" width="210" height="180" as="geometry" />
        </mxCell>
        <mxCell id="1P2t0-WDeM51nAtpfg30-3" value="" style="rounded=0;whiteSpace=wrap;html=1;fillColor=none;fontStyle=1" vertex="1" parent="1">
          <mxGeometry x="150" y="260" width="210" height="180" as="geometry" />
        </mxCell>
        <mxCell id="1P2t0-WDeM51nAtpfg30-4" value="" style="rounded=0;whiteSpace=wrap;html=1;fillColor=none;" vertex="1" parent="1">
          <mxGeometry x="830" y="260" width="210" height="180" as="geometry" />
        </mxCell>
        <mxCell id="1P2t0-WDeM51nAtpfg30-8" value="Backend - Func" style="text;strokeColor=none;fillColor=none;html=1;fontSize=24;fontStyle=1;verticalAlign=middle;align=center;" vertex="1" parent="1">
          <mxGeometry x="497.5" y="270" width="195" height="40" as="geometry" />
        </mxCell>
        <mxCell id="1P2t0-WDeM51nAtpfg30-9" value="" style="aspect=fixed;html=1;points=[];align=center;image;fontSize=12;image=img/lib/azure2/compute/Function_Apps.svg;fillColor=none;" vertex="1" parent="1">
          <mxGeometry x="510" y="338.5" width="74.8" height="66" as="geometry" />
        </mxCell>
        <mxCell id="1P2t0-WDeM51nAtpfg30-10" value="" style="aspect=fixed;html=1;points=[];align=center;image;fontSize=12;image=img/lib/azure2/containers/Container_Registries.svg;fillColor=none;" vertex="1" parent="1">
          <mxGeometry x="600" y="338.5" width="68" height="61" as="geometry" />
        </mxCell>
        <mxCell id="1P2t0-WDeM51nAtpfg30-12" value="" style="aspect=fixed;html=1;points=[];align=center;image;fontSize=12;image=img/lib/azure2/databases/Virtual_Clusters.svg;" vertex="1" parent="1">
          <mxGeometry x="671.87" y="414" width="20.63" height="20" as="geometry" />
        </mxCell>
        <mxCell id="1P2t0-WDeM51nAtpfg30-13" value="" style="aspect=fixed;html=1;points=[];align=center;image;fontSize=12;image=img/lib/azure2/security/Key_Vaults.svg;fillColor=none;" vertex="1" parent="1">
          <mxGeometry x="225" y="320" width="60" height="60" as="geometry" />
        </mxCell>
        <mxCell id="1P2t0-WDeM51nAtpfg30-15" value="Key Vault" style="text;strokeColor=none;fillColor=none;html=1;fontSize=24;fontStyle=1;verticalAlign=middle;align=center;" vertex="1" parent="1">
          <mxGeometry x="150" y="270" width="195" height="40" as="geometry" />
        </mxCell>
        <mxCell id="1P2t0-WDeM51nAtpfg30-16" value="BFF - Func" style="text;strokeColor=none;fillColor=none;html=1;fontSize=24;fontStyle=1;verticalAlign=middle;align=center;" vertex="1" parent="1">
          <mxGeometry x="837.5" y="270" width="195" height="40" as="geometry" />
        </mxCell>
        <mxCell id="1P2t0-WDeM51nAtpfg30-17" value="" style="aspect=fixed;html=1;points=[];align=center;image;fontSize=12;image=img/lib/azure2/compute/Function_Apps.svg;fillColor=none;" vertex="1" parent="1">
          <mxGeometry x="897.6" y="317" width="74.8" height="66" as="geometry" />
        </mxCell>
        <mxCell id="1P2t0-WDeM51nAtpfg30-19" value="" style="aspect=fixed;html=1;points=[];align=center;image;fontSize=12;image=img/lib/azure2/databases/Virtual_Clusters.svg;" vertex="1" parent="1">
          <mxGeometry x="1011.87" y="414" width="20.63" height="20" as="geometry" />
        </mxCell>
        <mxCell id="1P2t0-WDeM51nAtpfg30-20" value="" style="rounded=1;whiteSpace=wrap;html=1;fillColor=none;" vertex="1" parent="1">
          <mxGeometry x="370" y="470" width="110" height="220" as="geometry" />
        </mxCell>
        <mxCell id="1P2t0-WDeM51nAtpfg30-21" value="" style="rounded=1;whiteSpace=wrap;html=1;fillColor=none;" vertex="1" parent="1">
          <mxGeometry x="710" y="470" width="110" height="220" as="geometry" />
        </mxCell>
        <mxCell id="1P2t0-WDeM51nAtpfg30-22" value="" style="endArrow=classic;html=1;rounded=0;exitX=0.5;exitY=0;exitDx=0;exitDy=0;jumpSize=0;" edge="1" parent="1" source="1P2t0-WDeM51nAtpfg30-20">
          <mxGeometry width="50" height="50" relative="1" as="geometry">
            <mxPoint x="560" y="420" as="sourcePoint" />
            <mxPoint x="426" y="350" as="targetPoint" />
          </mxGeometry>
        </mxCell>
        <mxCell id="1P2t0-WDeM51nAtpfg30-24" value="" style="endArrow=classic;html=1;rounded=0;exitX=0.5;exitY=0;exitDx=0;exitDy=0;jumpSize=0;" edge="1" parent="1">
          <mxGeometry width="50" height="50" relative="1" as="geometry">
            <mxPoint x="764.5" y="470" as="sourcePoint" />
            <mxPoint x="765.5" y="350" as="targetPoint" />
          </mxGeometry>
        </mxCell>
        <mxCell id="1P2t0-WDeM51nAtpfg30-25" value="&lt;ol&gt;&lt;li&gt;&lt;span style=&quot;background-color: initial;&quot;&gt;json&lt;/span&gt;&lt;br&gt;&lt;/li&gt;&lt;li&gt;c&lt;/li&gt;&lt;li&gt;d&lt;/li&gt;&lt;li&gt;f&lt;/li&gt;&lt;li&gt;g&lt;/li&gt;&lt;li&gt;h&lt;/li&gt;&lt;li&gt;j&lt;/li&gt;&lt;li&gt;k&lt;/li&gt;&lt;li&gt;l&lt;/li&gt;&lt;/ol&gt;" style="text;html=1;strokeColor=none;fillColor=none;align=left;verticalAlign=middle;whiteSpace=wrap;rounded=0;" vertex="1" parent="1">
          <mxGeometry x="380" y="480" width="90" height="200" as="geometry" />
        </mxCell>
        <mxCell id="1P2t0-WDeM51nAtpfg30-26" value="&lt;ol&gt;&lt;li&gt;a&lt;/li&gt;&lt;li&gt;b&lt;/li&gt;&lt;li&gt;c&lt;/li&gt;&lt;li&gt;d&lt;/li&gt;&lt;li&gt;f&lt;/li&gt;&lt;li&gt;g&lt;/li&gt;&lt;li&gt;h&lt;/li&gt;&lt;li&gt;j&lt;/li&gt;&lt;li&gt;k&lt;/li&gt;&lt;li&gt;l&lt;/li&gt;&lt;/ol&gt;" style="text;html=1;strokeColor=none;fillColor=none;align=left;verticalAlign=middle;whiteSpace=wrap;rounded=0;" vertex="1" parent="1">
          <mxGeometry x="720" y="480" width="90" height="200" as="geometry" />
        </mxCell>
        <mxCell id="1P2t0-WDeM51nAtpfg30-27" value="" style="aspect=fixed;html=1;points=[];align=center;image;fontSize=12;image=img/lib/azure2/databases/SQL_Database.svg;fillColor=none;" vertex="1" parent="1">
          <mxGeometry x="562.37" y="90" width="65.25" height="87" as="geometry" />
        </mxCell>
        <mxCell id="1P2t0-WDeM51nAtpfg30-29" value="DB credentials" style="text;html=1;strokeColor=none;fillColor=none;align=center;verticalAlign=middle;whiteSpace=wrap;rounded=0;" vertex="1" parent="1">
          <mxGeometry x="590" y="177" width="92.5" height="30" as="geometry" />
        </mxCell>
        <mxCell id="1P2t0-WDeM51nAtpfg30-30" value="" style="aspect=fixed;html=1;points=[];align=center;image;fontSize=12;image=img/lib/azure2/security/Key_Vaults.svg;fillColor=none;" vertex="1" parent="1">
          <mxGeometry x="619.94" y="200" width="28.13" height="28.13" as="geometry" />
        </mxCell>
      </root>
    </mxGraphModel>
  </diagram>
</mxfile>
